<?xml version="1.0" standalone="no"?>
<!DOCTYPE svg PUBLIC "-//W3C//DTD SVG 20010904//EN"
 "http://www.w3.org/TR/2001/REC-SVG-20010904/DTD/svg10.dtd">
<svg version="1.0" xmlns="http://www.w3.org/2000/svg"
 width="300.000000pt" height="113.000000pt" viewBox="0 0 300.000000 113.000000"
 preserveAspectRatio="xMidYMid meet">
<metadata>
Created by potrace 1.10, written by Peter Selinger 2001-2011
</metadata>
<g transform="translate(0.000000,113.000000) scale(0.100000,-0.100000)"
fill="#000000" stroke="none">
<path d="M770 891 c0 -16 6 -21 24 -21 54 0 75 -62 23 -68 -24 -3 -27 -8 -27
-38 0 -27 4 -34 20 -34 13 0 20 7 20 20 0 11 6 20 14 20 25 0 46 30 46 65 0
40 -26 62 -84 72 -32 5 -36 3 -36 -16z"/>
<path d="M604 807 l-61 -51 59 -49 c52 -44 61 -48 74 -35 12 12 9 18 -31 48
-36 27 -43 37 -32 45 77 58 82 64 67 78 -13 13 -23 8 -76 -36z"/>
<path d="M141 775 c-34 -8 -78 -26 -97 -40 l-34 -26 2 -232 3 -231 34 -23 c51
-34 106 -46 211 -47 110 0 195 21 229 58 22 24 23 28 22 246 0 215 -1 224 -22
246 -49 52 -225 77 -348 49z m249 -36 c58 -13 90 -34 90 -59 0 -57 -224 -91
-351 -54 -97 29 -113 61 -47 95 69 35 197 43 308 18z m-266 -144 c104 -30 277
-15 356 32 3 2 3 -20 0 -49 -5 -50 -7 -54 -45 -73 -34 -17 -60 -20 -175 -20
-121 0 -139 2 -177 23 -42 22 -43 24 -43 73 0 40 3 49 13 41 6 -5 39 -18 71
-27z m59 -146 c86 -13 207 -1 260 26 17 8 33 15 36 15 4 0 4 -21 1 -47 -5 -45
-8 -49 -50 -70 -87 -43 -282 -39 -358 7 -29 18 -32 24 -32 70 l0 49 33 -19
c18 -11 67 -25 110 -31z m77 -134 c108 0 132 3 174 23 27 12 49 22 50 22 1 0
-1 -24 -4 -52 -5 -50 -7 -54 -45 -73 -34 -17 -60 -20 -175 -20 -121 0 -139 2
-177 23 -42 22 -43 24 -43 72 l0 49 48 -22 c40 -19 65 -22 172 -22z"/>
<path d="M1479 660 l-12 -60 -39 0 c-46 0 -83 -17 -120 -57 -83 -87 -57 -243
41 -243 20 0 47 7 59 16 20 14 22 14 22 0 0 -12 11 -16 45 -16 43 0 45 1 45
29 0 16 16 109 35 207 19 99 35 180 35 182 0 1 -22 2 -49 2 l-50 0 -12 -60z
m52 -150 c-34 -181 -37 -190 -58 -190 -18 0 -23 6 -23 25 0 31 -3 31 -34 0
-27 -27 -72 -33 -106 -15 -27 14 -40 70 -29 121 19 84 72 128 157 132 l47 2 9
58 c9 55 10 57 41 57 l31 0 -35 -190z"/>
<path d="M1387 529 c-46 -27 -62 -122 -27 -154 43 -39 98 21 103 112 2 47 1
48 -28 50 -16 2 -38 -2 -48 -8z m57 -59 c-14 -87 -84 -123 -84 -43 0 43 22 80
54 93 30 11 38 -1 30 -50z"/>
<path d="M2110 700 c-42 -42 -6 -98 51 -78 36 12 46 42 25 73 -20 30 -49 32
-76 5z m64 -22 c15 -24 -13 -53 -43 -43 -23 7 -28 34 -9 53 16 16 38 12 52
-10z"/>
<path d="M783 694 c-3 -8 2 -23 11 -32 15 -15 17 -15 32 0 21 21 11 48 -16 48
-11 0 -23 -7 -27 -16z"/>
<path d="M968 500 l-97 -200 53 0 54 0 21 50 22 50 49 0 49 0 3 -47 3 -48 53
-3 c28 -2 52 1 51 5 0 4 -10 94 -22 198 l-22 190 -61 3 -60 3 -96 -201z m202
165 c0 -21 29 -282 35 -318 4 -27 3 -28 -28 -25 -31 3 -32 5 -35 51 l-3 47
-65 0 -64 0 -23 -47 c-17 -38 -28 -49 -50 -51 -15 -2 -27 0 -27 5 0 4 37 86
82 181 l83 172 47 0 c37 0 48 -4 48 -15z"/>
<path d="M1071 563 c-18 -43 -36 -84 -38 -90 -4 -9 9 -13 46 -13 49 0 51 1 51
29 0 51 -13 151 -19 151 -4 0 -22 -35 -40 -77z m39 -28 c0 -52 -1 -55 -25 -55
-14 0 -25 4 -25 10 0 10 42 100 47 100 2 0 3 -25 3 -55z"/>
<path d="M1591 470 c-13 -72 -25 -140 -28 -151 -5 -19 -2 -20 43 -17 l49 3 16
82 c9 45 23 93 33 107 18 28 42 34 49 14 3 -11 -9 -90 -29 -180 -5 -28 -5 -28
44 -28 l49 0 13 73 c7 39 18 87 26 105 14 34 39 51 54 36 7 -8 -7 -119 -25
-191 -5 -22 -2 -23 44 -23 l48 0 17 89 c21 119 21 173 -2 194 -24 22 -90 22
-120 1 -21 -15 -25 -15 -41 0 -23 21 -85 21 -117 0 -22 -15 -24 -15 -18 0 5
13 -1 16 -38 16 l-45 0 -22 -130z m240 83 l9 -25 25 25 c29 28 62 37 94 26 34
-13 40 -46 25 -134 -21 -125 -21 -125 -50 -125 -26 0 -27 0 -18 53 4 28 8 77
9 107 0 49 -2 55 -22 58 -42 6 -70 -42 -93 -160 -10 -52 -14 -58 -37 -58 -25
0 -25 0 -17 58 5 31 8 79 9 107 0 40 -3 50 -18 53 -11 2 -30 -6 -43 -19 -25
-24 -36 -53 -54 -141 -10 -52 -14 -58 -36 -58 -29 0 -30 10 -9 129 25 136 23
131 51 131 21 0 25 -4 21 -20 -7 -26 14 -26 37 -1 33 37 102 33 117 -6z"/>
<path d="M2062 488 c-11 -62 -24 -130 -28 -151 l-6 -38 48 3 48 3 28 135 c15
74 27 141 28 148 0 8 -16 12 -49 12 l-48 0 -21 -112z m94 75 c-2 -10 -9 -44
-15 -75 -33 -178 -30 -168 -63 -168 -26 0 -29 3 -25 23 3 12 13 63 22 112 22
126 22 125 56 125 24 0 29 -4 25 -17z"/>
<path d="M2226 578 c-13 -63 -46 -255 -46 -266 0 -9 14 -12 47 -10 l47 3 17
82 c9 45 23 93 33 107 17 27 40 34 51 16 5 -9 -16 -138 -31 -192 -5 -15 2 -18
44 -18 31 0 52 5 55 13 2 6 13 60 23 119 18 107 18 108 -2 135 -26 35 -92 43
-131 17 -24 -15 -26 -15 -20 0 5 13 -1 16 -38 16 -38 0 -45 -3 -49 -22z m228
-31 c7 -18 4 -57 -9 -127 -18 -99 -19 -100 -47 -100 -33 0 -33 1 -14 99 16 81
8 121 -21 121 -43 -1 -74 -51 -93 -152 -12 -66 -13 -68 -42 -68 -28 0 -30 2
-25 28 3 15 14 73 24 130 17 101 18 102 45 102 25 0 28 -3 22 -25 -8 -31 4
-32 34 0 40 42 110 38 126 -8z"/>
<path d="M2605 590 c-105 -43 -138 -218 -51 -271 35 -21 106 -25 155 -8 29 10
32 15 29 48 -2 26 -7 35 -18 32 -39 -10 -72 -13 -95 -7 -41 10 -28 23 31 31
75 9 116 44 116 100 0 55 -36 85 -100 84 -26 0 -56 -4 -67 -9z m133 -37 c24
-26 24 -62 0 -90 -13 -17 -74 -33 -120 -33 -31 0 -38 -4 -38 -20 0 -32 44 -54
95 -47 39 6 45 4 45 -12 0 -22 -26 -31 -91 -31 -84 0 -126 63 -100 151 16 52
48 87 96 104 50 17 83 10 113 -22z"/>
<path d="M2633 540 c-21 -9 -43 -38 -43 -59 0 -12 42 -14 77 -5 31 8 41 44 17
61 -20 15 -21 15 -51 3z m42 -30 c0 -10 -12 -16 -35 -18 l-35 -4 20 22 c21 23
50 23 50 0z"/>
<path d="M2815 548 c-6 -56 -33 -201 -41 -230 -5 -16 2 -18 45 -18 56 0 50
-10 72 104 12 63 43 106 77 106 18 0 32 33 32 76 0 19 -54 18 -70 -1 -7 -8
-16 -15 -21 -15 -5 0 -6 7 -3 15 5 12 -3 15 -39 15 l-45 0 -7 -52z m171 26
c-3 -9 -6 -22 -6 -29 0 -7 -15 -18 -34 -25 -40 -13 -63 -52 -79 -135 -11 -55
-14 -60 -39 -63 -33 -4 -33 -7 -12 117 24 149 21 141 50 141 23 0 26 -3 22
-25 -7 -32 8 -42 22 -15 10 18 55 49 74 50 4 0 5 -7 2 -16z"/>
</g>
</svg>
